<svg width="198" height="25" viewBox="0 0 198 25" fill="none" xmlns="http://www.w3.org/2000/svg">
<path d="M83.9694 13.0337C83.9954 12.952 84.0956 12.911 84.1936 12.9421C84.292 12.9732 84.3501 13.0644 84.3241 13.146C84.2982 13.2277 84.198 13.2683 84.1 13.2372C84.0023 13.2061 83.9434 13.1149 83.9694 13.0337ZM83.8886 13.3798C84.3786 13.5941 84.65 13.5716 84.9316 13.0756C83.9285 13.0423 84.0524 12.3315 82.914 12.3315C83.1985 12.3795 83.4604 12.6106 83.4973 12.7122C83.4973 12.7122 83.3986 13.1659 83.8886 13.3798Z" fill="white"/>
<path d="M91.2399 15.2705L92.4652 13.4151L96.0386 7.79811H89.7011L87.6016 11.2788L85.3135 7.79811H78.976L79.3263 8.21325L79.9055 9.28152L79.9549 9.37279L80.0146 9.48231C80.2421 9.1891 80.6417 8.70042 81.0319 8.35739C81.2213 8.1912 81.408 8.05886 81.5723 7.99953V8.79663L81.4582 8.99363L80.9399 9.88543C80.9669 9.84892 81.5636 9.05144 82.1823 8.48175C82.4786 8.20908 82.7794 7.98888 83.0258 7.92918C83.0258 8.76811 82.6505 10.0474 82.2272 10.5182C82.212 10.6517 82.2481 10.7727 82.3786 10.8483L82.3828 10.8502L82.4915 10.8947L83.5335 11.323C84.1778 11.7093 84.6862 12.2706 85.1319 12.901C85.8971 13.9831 86.9532 14.3996 88.2238 14.3529C88.6048 14.3389 88.6269 14.4796 88.5128 14.7618C88.2553 15.3967 87.7564 15.7823 87.1642 16.0774C86.5972 16.3596 85.9781 16.4648 85.378 16.6387C85.2551 16.6742 85.1346 16.7142 85.0167 16.7578C85.014 16.7587 85.0114 16.7595 85.0087 16.7605C84.6915 16.8786 84.393 17.0251 84.1105 17.1945C83.6244 17.5014 83.0901 17.9351 82.5474 18.4567L82.5387 18.4653C81.0186 19.9295 79.7567 22.3554 78.976 24.3733H85.1319C85.894 23.1674 86.8193 21.0445 87.624 19.7914L90.6761 24.3733H96.5261L91.2399 15.2705Z" fill="white"/>
<path d="M65.4492 1.17171C67.4773 1.92013 68.9684 4.36697 68.7513 6.78909C68.5741 6.00415 68.2539 5.39074 67.9827 4.97735C67.9663 4.94807 67.9489 4.9203 67.9283 4.89635C67.6925 4.55103 67.5058 4.36697 67.5058 4.36697C67.5879 4.65562 67.5811 5.01462 67.5134 5.40975C67.3662 6.07907 67.151 6.71988 66.8893 7.34128C66.6292 7.94558 66.3352 8.52173 66.0896 8.97466C65.9165 9.28993 65.7359 9.60254 65.5511 9.91324C66.3345 7.65465 66.4733 6.24945 66.4242 5.4185C66.428 5.30175 66.4569 5.15799 66.39 5.07318C66.3151 4.55864 66.1694 4.36697 66.1694 4.36697C66.1048 5.95472 64.7509 7.09371 64.5212 7.27549C64.5102 7.28424 64.4992 7.29336 64.4878 7.30173C65.4552 5.35879 65.9264 3.34169 65.4492 1.17171ZM79.0433 14.8561C78.7227 12.8511 77.7773 11.2565 76.2565 10.0889H76.2561C75.8773 9.79763 75.4624 9.5337 75.0129 9.2964C74.0774 8.80239 72.9384 8.73736 72.6227 8.69248C73.0213 8.81532 73.3297 8.90241 73.6088 9.00205C74.0793 9.17128 74.4653 9.37816 75.0559 9.85582C75.0566 9.85658 75.0574 9.85734 75.0585 9.8581C75.3213 10.0562 75.5681 10.27 75.7971 10.4985C75.9115 10.6122 76.0214 10.7297 76.1268 10.8503C77.4088 12.3155 78.0275 14.2621 77.732 16.2711C77.3122 19.1239 74.7524 21.3842 71.9237 21.4644C70.6668 21.4325 69.726 20.8111 69.1974 19.952C68.7532 19.2322 68.5984 18.3452 68.7878 17.4978C68.9388 16.8206 69.3103 16.1686 69.9302 15.6474C69.9302 15.6474 69.2426 15.7422 68.6817 16.3281C68.5071 16.5101 68.3447 16.7393 68.22 17.0273C68.0991 17.3027 68.0124 17.6321 67.9804 18.0262C67.9405 18.5106 67.9831 19.092 68.1481 19.7903C67.5663 18.8705 67.4012 17.5054 67.3826 16.3645V16.3641C67.3666 15.3562 67.4651 14.5227 67.4898 14.3258C67.4906 14.32 67.4914 14.3151 67.4921 14.3101C67.4933 14.302 67.494 14.2958 67.4948 14.2913C67.4955 14.285 67.4959 14.2818 67.4959 14.2818C67.6062 13.5413 67.7918 12.8058 68.0531 12.0769C68.6368 10.4491 69.3541 8.87388 69.5043 7.11919C69.6435 5.49303 69.3187 4.00265 68.328 2.68225C67.4799 1.55162 66.3489 0.785324 65.0913 0.187494C64.897 0.0950832 64.6589 -0.0996304 64.4775 0.0619965C64.3136 0.20727 64.4927 0.457506 64.5429 0.650698C64.9936 2.37611 64.9787 4.07376 64.271 5.7349C63.78 6.88835 63.3218 8.05358 62.9582 9.25456C62.1866 11.8033 61.8904 14.3699 62.4274 17.0228C63.4887 22.2695 68.7558 25.3777 73.7841 23.6055C77.5183 22.2897 79.6407 18.6013 79.0433 14.8561Z" fill="white"/>
<path d="M60.4508 11.3337V7.79811H47.7757V24.3733H52.6507V17.5482H59.4758V13.6482H52.6507V11.3337H60.4508Z" fill="white"/>
<path d="M35.6496 24.3747H29.2949V7.79932H35.5851C37.2839 7.79932 38.7516 8.13115 39.9881 8.79481C41.23 9.45307 42.187 10.4027 42.859 11.6437C43.5364 12.8793 43.8751 14.3604 43.8751 16.087C43.8751 17.8136 43.5391 19.2974 42.8671 20.5384C42.1951 21.774 41.2435 22.7236 40.0123 23.3873C38.7812 24.0455 37.3269 24.3747 35.6496 24.3747ZM33.7787 20.5546H35.4883C36.3055 20.5546 37.0017 20.4224 37.5769 20.158C38.1575 19.8936 38.5984 19.4377 38.8995 18.7902C39.2059 18.1427 39.3591 17.2417 39.3591 16.087C39.3591 14.9323 39.2032 14.0313 38.8914 13.3838C38.585 12.7363 38.1334 12.2804 37.5366 12.016C36.9452 11.7516 36.2194 11.6194 35.3592 11.6194H33.7787V20.5546Z" fill="white"/>
<path d="M15.1689 24.3747V7.79932H27.0717V11.4252H19.6526V14.2741H26.4589V17.8999H19.6526V20.7488H27.0395V24.3747H15.1689Z" fill="white"/>
<path d="M0 24.3747V7.79932H7.12881C8.35458 7.79932 9.42713 8.02323 10.3465 8.47107C11.2658 8.91891 11.9808 9.56368 12.4915 10.4054C13.0023 11.2471 13.2577 12.2561 13.2577 13.4323C13.2577 14.6194 12.9942 15.6203 12.4674 16.435C11.9459 17.2497 11.212 17.8648 10.2658 18.2803C9.32498 18.6958 8.22555 18.9035 6.96753 18.9035H2.70959V15.4071H6.06433C6.59119 15.4071 7.0401 15.3424 7.41106 15.2129C7.78739 15.078 8.07502 14.8649 8.27394 14.5735C8.47823 14.2822 8.58038 13.9018 8.58038 13.4323C8.58038 12.9575 8.47823 12.5717 8.27394 12.275C8.07502 11.9728 7.78739 11.7516 7.41106 11.6113C7.0401 11.4656 6.59119 11.3928 6.06433 11.3928H4.48373V24.3747H0ZM9.67712 16.7668L13.806 24.3747H8.93521L4.90307 16.7668H9.67712Z" fill="white"/>
<path d="M184.33 24.155V8.021H191.294C192.491 8.021 193.539 8.23895 194.437 8.67486C195.335 9.11078 196.034 9.73839 196.533 10.5577C197.032 11.377 197.281 12.3591 197.281 13.504C197.281 14.6595 197.024 15.6337 196.509 16.4268C196 17.2198 195.283 17.8185 194.358 18.2229C193.439 18.6273 192.365 18.8295 191.136 18.8295H186.977V15.4263H190.254C190.769 15.4263 191.207 15.3632 191.57 15.2372C191.937 15.1059 192.218 14.8984 192.413 14.6148C192.612 14.3312 192.712 13.961 192.712 13.504C192.712 13.0419 192.612 12.6664 192.413 12.3775C192.218 12.0834 191.937 11.8681 191.57 11.7315C191.207 11.5897 190.769 11.5188 190.254 11.5188H188.71V24.155H184.33ZM193.783 16.7497L197.817 24.155H193.059L189.12 16.7497H193.783Z" fill="white"/>
<path d="M170.528 24.155V8.021H182.156V11.5503H174.908V14.3233H181.557V17.8527H174.908V20.6257H182.125V24.155H170.528Z" fill="white"/>
<path d="M168.453 8.021V24.155H164.073V8.021H168.453Z" fill="white"/>
<path d="M149.254 24.155V8.021H156.218C157.416 8.021 158.463 8.23895 159.362 8.67486C160.26 9.11078 160.958 9.73839 161.457 10.5577C161.956 11.377 162.205 12.3591 162.205 13.504C162.205 14.6595 161.948 15.6337 161.433 16.4268C160.924 17.2198 160.207 17.8185 159.283 18.2229C158.364 18.6273 157.29 18.8295 156.061 18.8295H151.901V15.4263H155.178C155.693 15.4263 156.132 15.3632 156.494 15.2372C156.862 15.1059 157.143 14.8984 157.337 14.6148C157.536 14.3312 157.636 13.961 157.636 13.504C157.636 13.0419 157.536 12.6664 157.337 12.3775C157.143 12.0834 156.862 11.8681 156.494 11.7315C156.132 11.5897 155.693 11.5188 155.178 11.5188H153.634V24.155H149.254ZM158.708 16.7497L162.741 24.155H157.983L154.044 16.7497H158.708Z" fill="white"/>
<path d="M142.793 8.021H147.173V18.3568C147.173 19.5858 146.879 20.6493 146.291 21.5474C145.708 22.4402 144.894 23.1309 143.848 23.6193C142.803 24.1025 141.59 24.3441 140.209 24.3441C138.817 24.3441 137.599 24.1025 136.553 23.6193C135.508 23.1309 134.694 22.4402 134.111 21.5474C133.534 20.6493 133.245 19.5858 133.245 18.3568V8.021H137.625V17.9787C137.625 18.4776 137.735 18.9241 137.956 19.318C138.176 19.7066 138.481 20.0112 138.87 20.2318C139.263 20.4524 139.71 20.5627 140.209 20.5627C140.713 20.5627 141.159 20.4524 141.548 20.2318C141.937 20.0112 142.241 19.7066 142.462 19.318C142.683 18.9241 142.793 18.4776 142.793 17.9787V8.021Z" fill="white"/>
<path d="M131.218 16.0869C131.218 17.8831 130.869 19.3983 130.17 20.6325C129.472 21.8614 128.529 22.7937 127.342 23.4291C126.155 24.0594 124.831 24.3745 123.371 24.3745C121.901 24.3745 120.572 24.0567 119.385 23.4213C118.203 22.7805 117.263 21.8457 116.565 20.6167C115.872 19.3825 115.525 17.8726 115.525 16.0869C115.525 14.2907 115.872 12.7782 116.565 11.5492C117.263 10.315 118.203 9.38278 119.385 8.75255C120.572 8.11706 121.901 7.79932 123.371 7.79932C124.831 7.79932 126.155 8.11706 127.342 8.75255C128.529 9.38278 129.472 10.315 130.17 11.5492C130.869 12.7782 131.218 14.2907 131.218 16.0869ZM126.712 16.0869C126.712 15.1205 126.583 14.3065 126.326 13.6447C126.074 12.9777 125.698 12.4736 125.199 12.1322C124.705 11.7856 124.096 11.6122 123.371 11.6122C122.647 11.6122 122.035 11.7856 121.536 12.1322C121.042 12.4736 120.667 12.9777 120.409 13.6447C120.157 14.3065 120.031 15.1205 120.031 16.0869C120.031 17.0533 120.157 17.8699 120.409 18.5369C120.667 19.1987 121.042 19.7029 121.536 20.0495C122.035 20.3909 122.647 20.5616 123.371 20.5616C124.096 20.5616 124.705 20.3909 125.199 20.0495C125.698 19.7029 126.074 19.1987 126.326 18.5369C126.583 17.8699 126.712 17.0533 126.712 16.0869Z" fill="white"/>
<path d="M113.602 14.0702H109.158C109.127 13.7025 109.043 13.369 108.906 13.0697C108.775 12.7703 108.591 12.5129 108.355 12.2976C108.124 12.077 107.843 11.909 107.512 11.7934C107.181 11.6726 106.805 11.6122 106.385 11.6122C105.65 11.6122 105.028 11.7908 104.518 12.1479C104.014 12.5051 103.631 13.0171 103.368 13.6841C103.111 14.3511 102.982 15.1521 102.982 16.0869C102.982 17.0743 103.113 17.9015 103.376 18.5685C103.644 19.2302 104.03 19.7291 104.534 20.0653C105.038 20.3961 105.645 20.5616 106.354 20.5616C106.758 20.5616 107.121 20.5117 107.441 20.4119C107.761 20.3069 108.04 20.1572 108.276 19.9628C108.512 19.7685 108.704 19.5348 108.851 19.2617C109.003 18.9834 109.106 18.6709 109.158 18.3242L113.602 18.3557C113.549 19.0385 113.357 19.7344 113.026 20.4434C112.696 21.1472 112.226 21.7984 111.616 22.3971C111.012 22.9906 110.264 23.4685 109.371 23.8309C108.478 24.1933 107.441 24.3745 106.259 24.3745C104.778 24.3745 103.449 24.0567 102.273 23.4213C101.102 22.7858 100.175 21.8509 99.4921 20.6167C98.8146 19.3825 98.4759 17.8726 98.4759 16.0869C98.4759 14.2907 98.8225 12.7782 99.5158 11.5492C100.209 10.315 101.144 9.38278 102.32 8.75255C103.497 8.11706 104.81 7.79932 106.259 7.79932C107.278 7.79932 108.216 7.93849 109.072 8.21685C109.928 8.4952 110.679 8.90223 111.325 9.43793C111.971 9.96837 112.491 10.6222 112.885 11.3995C113.279 12.1768 113.517 13.067 113.602 14.0702Z" fill="white"/>
</svg>
