<svg width="290" height="335" viewBox="0 0 290 335" fill="none" xmlns="http://www.w3.org/2000/svg">
<g clip-path="url(#clip0_2491_22681)">
<path d="M217.495 230.207C219.294 249.514 210.171 268.554 197.167 282.864C184.162 297.174 167.522 307.53 151.113 317.696C114.85 393.936 95.7767 481.629 102.937 565.843C59.7635 575.759 11.3316 568.894 -26.998 546.575C-34.8366 514.531 -17.0963 478.632 0.745333 450.941C18.587 423.251 40.6788 397.655 51.5588 366.522C59.9972 342.375 61.143 316.376 65.3136 291.125C69.4842 265.875 77.542 239.818 96.303 222.534C112.536 207.578 135.572 200.989 157.459 203.313C179.345 205.639 201.685 214.801 217.495 230.207Z" fill="#F3551E"/>
<g opacity="0.100006">
<mask id="mask0_2491_22681" style="mask-type:luminance" maskUnits="userSpaceOnUse" x="93" y="267" width="104" height="45">
<path d="M196.806 267.054H93.6211V311.413H196.806V267.054Z" fill="white"/>
</mask>
<g mask="url(#mask0_2491_22681)">
<path d="M93.6213 311.414C98.9723 299.912 106.033 287.131 117.163 281.121C128.292 275.108 140.653 271.78 153.03 269.22C160.818 267.61 168.844 266.28 176.689 267.578C184.536 268.876 192.275 273.237 195.762 280.418C196.197 281.312 196.543 282.251 196.806 283.216C186.682 294.243 174.398 302.917 161.744 310.987C139.171 311.569 114.889 303.199 93.6213 311.414Z" fill="black"/>
</g>
</g>
<path d="M192.634 76.6843C206.638 64.4462 223.472 55.5588 241.392 50.9417C244.05 54.4796 246.309 59.0967 246.628 63.5316C247.758 79.2325 228.254 90.7648 214.109 97.2727C209.872 95.9919 205.765 94.0764 202.991 90.5848C200.218 87.0942 198.169 83.0821 196.14 79.1008C195.33 80.1182 193.054 80.6779 192.496 79.4979C191.938 78.3189 191.657 77.5381 192.634 76.6843Z" fill="#F3551E"/>
<path d="M201.235 162.995C210.157 163.174 219.033 165.332 226.988 169.259C232.254 184.267 238.252 200.695 241.313 216.27C237.179 219.885 231.793 220.682 226.315 219.733C210.58 217.006 195.975 208.536 186.046 196.378C177.781 186.259 190.654 170.821 201.235 162.995Z" fill="#F3551E"/>
<g opacity="0.199997">
<mask id="mask1_2491_22681" style="mask-type:luminance" maskUnits="userSpaceOnUse" x="184" y="162" width="58" height="59">
<path d="M241.075 162.623H184.27V220.616H241.075V162.623Z" fill="white"/>
</mask>
<g mask="url(#mask1_2491_22681)">
<path d="M201.756 162.623C210.51 162.805 219.217 164.996 227.021 168.984C232.187 184.226 238.072 200.909 241.075 216.726C237.019 220.398 231.735 221.207 226.361 220.243C210.925 217.473 196.597 208.872 186.855 196.525C178.747 186.248 191.376 170.571 201.756 162.623Z" fill="black"/>
</g>
</g>
<path d="M207.339 141.441C216.096 141.624 224.807 143.823 232.615 147.823C237.783 163.115 243.67 179.853 246.675 195.721C242.617 199.405 237.331 200.217 231.954 199.249C216.511 196.471 202.177 187.841 192.431 175.454C184.318 165.145 196.953 149.415 207.339 141.441Z" fill="#F3551E"/>
<g opacity="0.100006">
<mask id="mask2_2491_22681" style="mask-type:luminance" maskUnits="userSpaceOnUse" x="189" y="141" width="58" height="59">
<path d="M246.646 141.092H189.84V199.085H246.646V141.092Z" fill="white"/>
</mask>
<g mask="url(#mask2_2491_22681)">
<path d="M207.327 141.091C216.08 141.273 224.787 143.465 232.592 147.452C237.757 162.695 243.642 179.378 246.645 195.195C242.589 198.866 237.305 199.676 231.932 198.711C216.495 195.942 202.167 187.34 192.426 174.994C184.317 164.718 196.945 149.039 207.327 141.091Z" fill="black"/>
</g>
</g>
<path d="M219.372 112.497C232.387 125.023 242.546 140.638 248.819 157.759C246.318 159.545 242.72 161.418 239.688 161.75C225.936 163.258 213.536 154.122 204.626 143.297C201.665 139.698 202.897 134.167 203.375 129.487C203.774 125.568 204.788 121.581 207.195 118.507C209.602 115.433 215.638 111.542 219.372 112.497Z" fill="#F3551E"/>
<path d="M207.332 282.147L99.1062 282.855C88.1759 282.926 79.2561 274.088 79.1823 263.114L77.6345 28.2885C77.5618 17.3144 86.3651 8.36075 97.2965 8.28999L205.521 7.58187C216.453 7.5111 225.372 16.3488 225.445 27.3228L226.993 262.148C227.067 273.121 218.263 282.076 207.332 282.147Z" fill="url(#paint0_linear_2491_22681)"/>
<path d="M203.473 16.0795L174.006 16.2816L174.03 19.9495C174.061 24.8583 170.141 28.8628 165.275 28.8961L137.891 29.084C133.024 29.1173 129.056 25.1663 129.025 20.2586L129.002 16.5898L99.5365 16.7921C92.0566 16.8421 86.033 23.0002 86.0802 30.5438L87.5273 260.788C87.5746 268.332 93.6759 274.407 101.155 274.354L205.09 273.643C212.57 273.592 218.594 267.434 218.547 259.89L217.1 29.6449C217.052 22.1023 210.951 16.0283 203.473 16.0795Z" fill="#F8F6F6"/>
<path d="M152 113.667C139.12 113.667 128.667 124.12 128.667 137C128.667 149.88 139.12 160.333 152 160.333C164.88 160.333 175.333 149.88 175.333 137C175.333 124.12 164.88 113.667 152 113.667ZM152 155.667C141.71 155.667 133.333 147.29 133.333 137C133.333 126.71 141.71 118.333 152 118.333C162.29 118.333 170.667 126.71 170.667 137C170.667 147.29 162.29 155.667 152 155.667ZM162.71 126.687L147.333 142.063L141.29 136.043L138 139.333L147.333 148.667L166 130L162.71 126.687Z" fill="#3FA14B"/>
<g opacity="0.399994">
<mask id="mask3_2491_22681" style="mask-type:luminance" maskUnits="userSpaceOnUse" x="114" y="255" width="79" height="17">
<path d="M192.933 260.284L114.822 255.585L114.15 267.018L192.261 271.718L192.933 260.284Z" fill="white"/>
</mask>
<g mask="url(#mask3_2491_22681)">
<path d="M189.407 266.799L117.72 267.233C115.867 267.246 114.353 265.749 114.341 263.89C114.329 262.033 115.82 260.517 117.674 260.506L189.36 260.07C191.213 260.058 192.727 261.556 192.74 263.414C192.754 265.273 191.261 266.788 189.407 266.799Z" fill="#EDD9D9"/>
</g>
</g>
<g opacity="0.100006">
<mask id="mask4_2491_22681" style="mask-type:luminance" maskUnits="userSpaceOnUse" x="75" y="133" width="42" height="167">
<path d="M116.864 133.789H75.2216V299.82H116.864V133.789Z" fill="white"/>
</mask>
<g mask="url(#mask4_2491_22681)">
<path d="M83.5476 281.254L75.2211 154.506C85.8653 149.375 95.9447 143.278 104.734 135.604C109.334 131.588 116.539 134.648 116.824 140.764C117.291 150.755 113.609 162.183 108.273 169.205C104.367 174.342 99.4993 178.522 94.1803 182.165C92.8958 190.901 92.3684 199.686 94.2165 208.26C96.9737 221.048 104.771 232.173 108.652 244.663C114.207 262.528 111.372 281.43 106.039 299.679L104.586 299.776C93.686 300.499 84.2664 292.206 83.5476 281.254Z" fill="black"/>
</g>
</g>
<path d="M37.1426 316.072C37.965 295.223 33.1421 274.508 33.3537 253.644C33.6168 227.745 41.5858 202.666 47.8811 177.559C48.5064 175.068 49.1152 172.563 49.6972 170.046C51.0169 164.346 54.6397 159.437 59.7051 156.596C71.3691 150.05 82.3367 142.417 91.5006 132.911C95.7415 128.511 103.159 130.966 103.947 137.055C105.234 147.004 102.518 158.737 97.7907 166.203C94.333 171.666 89.8362 176.251 84.8492 180.34C84.2931 189.179 84.4953 198.006 87.0399 206.422C90.836 218.975 99.5057 229.442 104.398 241.603C113.818 265.027 108.276 291.603 101.715 316.002C95.1533 340.399 87.6332 365.945 93.4838 390.527C80.8828 400.513 77.3405 564.457 61.3313 564.879C45.3221 565.302 -53.2445 553.483 -60 538.813C-43.3913 519.401 36.1324 341.711 37.1426 316.072Z" fill="#F3551E"/>
<g opacity="0.100006">
<mask id="mask5_2491_22681" style="mask-type:luminance" maskUnits="userSpaceOnUse" x="147" y="16" width="10" height="10">
<path d="M156.324 16.768L148.07 16.2671L147.587 24.5453L155.841 25.0461L156.324 16.768Z" fill="white"/>
</mask>
<g mask="url(#mask5_2491_22681)">
<path d="M147.822 20.6805C147.839 22.9711 149.703 24.8168 151.985 24.804C154.267 24.7911 156.104 22.9237 156.088 20.6332C156.071 18.3426 154.208 16.4959 151.926 16.5088C149.642 16.5226 147.804 18.39 147.822 20.6805Z" fill="#A6D9F0"/>
</g>
</g>
</g>
<defs>
<linearGradient id="paint0_linear_2491_22681" x1="91.5009" y1="276.499" x2="187.266" y2="21.526" gradientUnits="userSpaceOnUse">
<stop stop-color="#F7F8FD"/>
<stop offset="0.374187" stop-color="#7A83BB"/>
<stop offset="1" stop-color="#AFB6E5"/>
</linearGradient>
<clipPath id="clip0_2491_22681">
<rect width="290" height="335" fill="white"/>
</clipPath>
</defs>
</svg>
