<svg width="792" height="120" viewBox="0 0 792 120" fill="none" xmlns="http://www.w3.org/2000/svg">
<path d="M335.878 52.136C335.982 51.8093 336.383 51.645 336.775 51.7695C337.168 51.894 337.401 52.2587 337.297 52.5853C337.193 52.912 336.792 53.0745 336.4 52.95C336.01 52.8255 335.774 52.4608 335.878 52.136ZM335.555 53.5204C337.515 54.3777 338.6 54.2877 339.727 52.3036C335.714 52.1705 336.21 49.3274 331.656 49.3274C332.794 49.5192 333.842 50.4438 333.989 50.85C333.989 50.85 333.594 52.6648 335.555 53.5204Z" fill="#F3551E"/>
<path d="M364.959 61.0821L369.86 53.6606L384.154 31.1927H358.804L350.406 45.1156L341.254 31.1927H315.903L317.305 32.8533L319.621 37.1263L319.819 37.4914L320.058 37.9295C320.968 36.7567 322.567 34.8019 324.127 33.4298C324.885 32.765 325.632 32.2357 326.289 31.9984V35.1868L325.833 35.9748L323.759 39.542C323.867 39.3959 326.254 36.206 328.729 33.9272C329.914 32.8365 331.117 31.9558 332.103 31.7169C332.103 35.0727 330.601 40.19 328.908 42.0732C328.848 42.6072 328.992 43.0909 329.514 43.3936L329.531 43.4012L329.966 43.5792L334.134 45.2921C336.711 46.8376 338.744 49.0827 340.527 51.6044C343.588 55.9325 347.812 57.5987 352.895 57.4117C354.419 57.356 354.507 57.9186 354.051 59.0473C353.021 61.5871 351.025 63.1293 348.656 64.31C346.388 65.4388 343.912 65.8594 341.511 66.555C341.02 66.6969 340.538 66.857 340.066 67.0313C340.056 67.0349 340.045 67.0384 340.034 67.0421C338.766 67.5147 337.572 68.1007 336.441 68.7784C334.497 70.006 332.36 71.7404 330.189 73.8271L330.154 73.8613C324.074 79.7182 319.026 89.422 315.903 97.4934H340.527C343.576 92.6697 347.277 84.1783 350.496 79.166L362.704 97.4934H386.104L364.959 61.0821Z" fill="#F3551E"/>
<path d="M261.796 4.68707C269.909 7.68078 275.873 17.4681 275.005 27.1566C274.296 24.0169 273.015 21.5632 271.93 19.9096C271.865 19.7925 271.795 19.6815 271.713 19.5856C270.77 18.2044 270.023 17.4681 270.023 17.4681C270.351 18.6227 270.324 20.0587 270.053 21.6392C269.464 24.3165 268.603 26.8797 267.557 29.3654C266.516 31.7826 265.34 34.0872 264.358 35.8989C263.666 37.16 262.943 38.4104 262.204 39.6532C265.337 30.6188 265.893 24.998 265.696 21.6742C265.712 21.2072 265.827 20.6322 265.56 20.293C265.26 18.2348 264.677 17.4681 264.677 17.4681C264.419 23.8191 259.003 28.3751 258.084 29.1022C258.04 29.1372 257.996 29.1737 257.951 29.2072C261.82 21.4354 263.705 13.367 261.796 4.68707ZM316.173 59.4246C314.89 51.4047 311.109 45.0261 305.025 40.356H305.024C303.509 39.1908 301.849 38.135 300.051 37.1858C296.309 35.2098 291.753 34.9497 290.49 34.7702C292.085 35.2615 293.318 35.6099 294.435 36.0084C296.317 36.6854 297.861 37.5129 300.223 39.4235C300.226 39.4266 300.229 39.4296 300.234 39.4326C301.285 40.2252 302.272 41.0801 303.188 41.9943C303.646 42.4492 304.085 42.9192 304.507 43.4014C309.635 49.2623 312.11 57.0485 310.928 65.0845C309.248 76.496 299.009 85.537 287.694 85.8579C282.667 85.7301 278.903 83.2445 276.789 79.8081C275.012 76.9291 274.393 73.3811 275.151 69.9913C275.755 67.2826 277.241 64.6747 279.72 62.5897C279.72 62.5897 276.97 62.969 274.726 65.3127C274.028 66.0407 273.378 66.9574 272.88 68.1094C272.396 69.2112 272.049 70.5287 271.921 72.105C271.761 74.0425 271.932 76.3684 272.592 79.1616C270.265 75.4823 269.604 70.0218 269.53 65.4583V65.4566C269.466 61.4251 269.86 58.091 269.959 57.3036C269.962 57.2803 269.965 57.2606 269.968 57.2408C269.973 57.2084 269.976 57.1833 269.979 57.1653C269.982 57.1401 269.983 57.1276 269.983 57.1276C270.424 54.1655 271.167 51.2233 272.212 48.3079C274.547 41.7966 277.416 35.4958 278.017 28.477C278.573 21.9724 277.274 16.0108 273.312 10.7292C269.919 6.20674 265.395 3.14154 260.365 0.750223C259.587 0.380573 258.635 -0.398277 257.909 0.24823C257.254 0.829325 257.97 1.83027 258.171 2.60303C259.974 9.50469 259.914 16.2953 257.083 22.9399C255.12 27.5536 253.287 32.2146 251.832 37.0185C248.746 47.2135 247.561 57.4798 249.709 68.0914C253.954 89.0783 275.023 101.511 295.136 94.4222C310.073 89.1589 318.562 74.4056 316.173 59.4246Z" fill="#F3551E"/>
<path d="M241.803 45.3351V31.1927H191.103V97.4934H210.603V70.1931H237.903V54.593H210.603V45.3351H241.803Z" fill="#F3551E"/>
<path d="M142.598 97.4989H117.18V31.1975H142.34C149.136 31.1975 155.006 32.5248 159.953 35.1795C164.92 37.8125 168.748 41.6111 171.436 46.575C174.146 51.5174 175.5 57.4418 175.5 64.3482C175.5 71.2546 174.156 77.1898 171.468 82.1538C168.78 87.0961 164.974 90.8947 160.049 93.5493C155.125 96.1824 149.308 97.4989 142.598 97.4989ZM135.115 82.2185H141.953C145.222 82.2185 148.007 81.6897 150.308 80.6322C152.63 79.5747 154.394 77.7509 155.598 75.161C156.824 72.5711 157.437 68.9669 157.437 64.3482C157.437 59.7296 156.813 56.1253 155.566 53.5354C154.34 50.9455 152.533 49.1218 150.146 48.0642C147.781 47.0067 144.878 46.4779 141.437 46.4779H135.115V82.2185Z" fill="#F3551E"/>
<path d="M60.6758 97.4989V31.1975H108.287V45.7009H78.6107V57.0965H105.836V71.5999H78.6107V82.9955H108.158V97.4989H60.6758Z" fill="#F3551E"/>
<path d="M0 97.4989V31.1975H28.5152C33.4183 31.1975 37.7085 32.0932 41.3858 33.8845C45.0631 35.6759 47.9232 38.255 49.9662 41.6219C52.0091 44.9887 53.0306 49.0246 53.0306 53.7296C53.0306 58.4778 51.9769 62.4813 49.8694 65.7403C47.7835 68.9992 44.8481 71.4596 41.0632 73.1215C37.2999 74.7833 32.9022 75.6143 27.8701 75.6143H10.8384V61.6288H24.2573C26.3648 61.6288 28.1604 61.3698 29.6442 60.8518C31.1496 60.3123 32.3001 59.4598 33.0957 58.2943C33.9129 57.1289 34.3215 55.6073 34.3215 53.7296C34.3215 51.8304 33.9129 50.2872 33.0957 49.1002C32.3001 47.8916 31.1496 47.0067 29.6442 46.4455C28.1604 45.8628 26.3648 45.5714 24.2573 45.5714H17.9349V97.4989H0ZM38.7085 67.0676L55.2241 97.4989H35.7408L19.6123 67.0676H38.7085Z" fill="#F3551E"/>
<path d="M737.318 96.6203V32.0842H765.175C769.965 32.0842 774.156 32.9561 777.748 34.6997C781.34 36.4434 784.134 38.9538 786.13 42.231C788.126 45.5082 789.124 49.4367 789.124 54.0164C789.124 58.6381 788.094 62.5351 786.036 65.7073C783.998 68.8794 781.13 71.2743 777.433 72.8919C773.756 74.5095 769.46 75.3183 764.545 75.3183H747.906V61.7053H761.015C763.074 61.7053 764.828 61.4532 766.278 60.949C767.748 60.4238 768.872 59.594 769.649 58.4596C770.448 57.3251 770.847 55.8441 770.847 54.0164C770.847 52.1677 770.448 50.6657 769.649 49.5102C768.872 48.3338 767.748 47.4725 766.278 46.9263C764.828 46.359 763.074 46.0754 761.015 46.0754H754.839V96.6203H737.318ZM775.132 66.9992L791.266 96.6203H772.233L756.478 66.9992H775.132Z" fill="#F3551E"/>
<path d="M682.113 96.6203V32.0842H728.625V46.2015H699.634V57.2936H726.23V71.4109H699.634V82.503H728.499V96.6203H682.113Z" fill="#F3551E"/>
<path d="M673.814 32.0842V96.6203H656.293V32.0842H673.814Z" fill="#F3551E"/>
<path d="M597.017 96.6203V32.0842H624.873C629.663 32.0842 633.854 32.9561 637.446 34.6997C641.039 36.4434 643.833 38.9538 645.828 42.231C647.824 45.5082 648.822 49.4367 648.822 54.0164C648.822 58.6381 647.793 62.5351 645.734 65.7073C643.696 68.8794 640.828 71.2743 637.131 72.8919C633.455 74.5095 629.159 75.3183 624.243 75.3183H607.605V61.7053H620.713C622.772 61.7053 624.526 61.4532 625.976 60.949C627.446 60.4238 628.57 59.594 629.348 58.4596C630.146 57.3251 630.545 55.8441 630.545 54.0164C630.545 52.1677 630.146 50.6657 629.348 49.5102C628.57 48.3338 627.446 47.4725 625.976 46.9263C624.526 46.359 622.772 46.0754 620.713 46.0754H614.537V96.6203H597.017ZM634.831 66.9992L650.965 96.6203H631.932L616.176 66.9992H634.831Z" fill="#F3551E"/>
<path d="M571.171 32.0842H588.691V73.4276C588.691 78.3435 587.515 82.5976 585.162 86.1899C582.83 89.7612 579.574 92.5237 575.393 94.4775C571.213 96.4102 566.36 97.3766 560.835 97.3766C555.268 97.3766 550.394 96.4102 546.213 94.4775C542.033 92.5237 538.777 89.7612 536.445 86.1899C534.134 82.5976 532.979 78.3435 532.979 73.4276V32.0842H550.499V71.9151C550.499 73.9108 550.94 75.6965 551.823 77.2721C552.705 78.8266 553.923 80.0451 555.478 80.9274C557.053 81.8098 558.839 82.2509 560.835 82.2509C562.852 82.2509 564.637 81.8098 566.192 80.9274C567.746 80.0451 568.965 78.8266 569.847 77.2721C570.73 75.6965 571.171 73.9108 571.171 71.9151V32.0842Z" fill="#F3551E"/>
<path d="M524.871 64.3479C524.871 71.5325 523.474 77.5933 520.68 82.5301C517.886 87.446 514.115 91.1749 509.367 93.7168C504.619 96.2377 499.325 97.4982 493.485 97.4982C487.603 97.4982 482.288 96.2272 477.54 93.6853C472.814 91.1223 469.053 87.3829 466.259 82.4671C463.486 77.5303 462.1 71.4905 462.1 64.3479C462.1 57.1632 463.486 51.1129 466.259 46.1971C469.053 41.2603 472.814 37.5314 477.54 35.0104C482.288 32.4685 487.603 31.1975 493.485 31.1975C499.325 31.1975 504.619 32.4685 509.367 35.0104C514.115 37.5314 517.886 41.2603 520.68 46.1971C523.474 51.1129 524.871 57.1632 524.871 64.3479ZM506.846 64.3479C506.846 60.4824 506.332 57.2262 505.302 54.5792C504.294 51.9112 502.792 49.8945 500.796 48.529C498.821 47.1424 496.384 46.4492 493.485 46.4492C490.586 46.4492 488.139 47.1424 486.143 48.529C484.168 49.8945 482.666 51.9112 481.637 54.5792C480.629 57.2262 480.124 60.4824 480.124 64.3479C480.124 68.2133 480.629 71.48 481.637 74.148C482.666 76.795 484.168 78.8118 486.143 80.1983C488.139 81.5638 490.586 82.2465 493.485 82.2465C496.384 82.2465 498.821 81.5638 500.796 80.1983C502.792 78.8118 504.294 76.795 505.302 74.148C506.332 71.48 506.846 68.2133 506.846 64.3479Z" fill="#F3551E"/>
<path d="M454.406 56.2809H436.633C436.507 54.8103 436.171 53.4763 435.625 52.2789C435.1 51.0814 434.364 50.052 433.419 49.1907C432.495 48.3084 431.371 47.6361 430.047 47.174C428.724 46.6908 427.222 46.4492 425.541 46.4492C422.6 46.4492 420.111 47.1635 418.073 48.592C416.056 50.0205 414.522 52.0688 413.472 54.7368C412.443 57.4048 411.928 60.6085 411.928 64.3479C411.928 68.2973 412.453 71.6061 413.504 74.2741C414.575 76.921 416.119 78.9168 418.136 80.2613C420.153 81.5848 422.579 82.2465 425.415 82.2465C427.033 82.2465 428.482 82.047 429.764 81.6478C431.045 81.2277 432.159 80.6289 433.104 79.8516C434.049 79.0743 434.816 78.1395 435.404 77.0471C436.014 75.9337 436.423 74.6837 436.633 73.2972L454.406 73.4232C454.196 76.1543 453.429 78.9378 452.105 81.7739C450.782 84.5889 448.902 87.1939 446.465 89.5888C444.049 91.9627 441.055 93.8744 437.484 95.3239C433.913 96.7734 429.764 97.4982 425.037 97.4982C419.113 97.4982 413.798 96.2272 409.092 93.6853C404.407 91.1433 400.699 87.4039 397.968 82.4671C395.258 77.5303 393.903 71.4905 393.903 64.3479C393.903 57.1632 395.29 51.1129 398.063 46.1971C400.836 41.2603 404.575 37.5314 409.281 35.0104C413.987 32.4685 419.239 31.1975 425.037 31.1975C429.112 31.1975 432.862 31.7542 436.287 32.8676C439.711 33.981 442.715 35.6092 445.299 37.7519C447.883 39.8737 449.963 42.4892 451.538 45.5984C453.114 48.7075 454.07 52.2684 454.406 56.2809Z" fill="#F3551E"/>
</svg>
